<svg id="Capa_2" data-name="Capa 2" xmlns="http://www.w3.org/2000/svg" viewBox="0 0 3631.9 3810"><defs><style>.cls-1{fill:#1d1d1b;stroke-width:0}</style></defs><g id="Layer_1" data-name="Layer 1"><path class="cls-1" d="m934 1305 52-27c107-53 232-61 344-20 97 35 174 90 236 161a800 800 0 0 1 215 453v1c27 86-1 183-76 234-74 51-118 134-139 243l-40 201h-190l-41 116h-161c-1 47-13 96-32 145-8 21-38 21-45 0-18-57-26-114-24-170-27 18-56 31-87 37-25 4-44-21-36-45 41-112 60-195 68-264-18 0-33 0-46-2-40-6-61-50-43-86 35-70 90-130 159-184-12 1-23 2-34 1-46-2-75-50-57-93 32-79 84-164 141-252 10-15 16-33 17-51 5-92 2-178-17-249-57-20-113-54-168-95a32 32 0 0 1 4-54ZM2763 1022c-49-113-129-142-246-71-124 88-228 191-302 317h-299c-16 0-29 12-30 28l-32 397c-5 64 16 130 61 176 22 22 43 33 64 30l-1 3c-32 126 8 262 108 346a509 509 0 0 0 391 132c3 44 20 75 52 92 27 14 62 4 80-21 113-165 137-436 109-770 107-227 129-448 45-659Zm-120 578c-88-95-184-103-287-50-23-36-37-73-44-110-8-37 0-76 18-109a562 562 0 0 1 286-254c14-6 31 4 34 19 24 119 9 309-7 504ZM826 482l60 84-32 23-147-209 36-26c18-12 32-20 42-24a73 73 0 0 1 83 29c13 19 18 39 13 59s-19 38-40 53l-15 11Zm-20-30 11-8c29-20 36-42 20-64-15-22-37-22-67-1l-11 8 47 65ZM1244 303l-101 42-2 68-39 16 13-300 217 204-39 16-49-46Zm-28-28-69-66-3 96 72-30ZM1535 62l39 216-38 7-39-216-58 11-6-36 153-28 7 36-58 10ZM1870 0l-2 256-39-1 2-255h39ZM2202 70l-39 216-38-7 39-216-57-10 6-36 153 28-6 35-58-10ZM2557 346l-101-42-50 46-39-16 222-201 7 297-39-16v-68Zm-1-39-1-95-70 65 71 30ZM3003 438l-36-3c1-12 1-21-2-26-2-6-7-12-14-17-9-6-18-9-27-8-9 0-16 4-22 11-7 11-5 24 5 41l15 24c11 19 18 36 18 51 1 16-4 30-14 45a78 78 0 0 1-53 33c-22 3-43-2-62-16a79 79 0 0 1-32-48c-4-19 0-39 11-61l36 16c-7 13-11 24-10 31-1 14 6 25 18 34 10 7 20 9 31 8 11-2 21-8 28-18l6-12c2-5 2-9 2-13l-4-15c-2-5-4-11-8-17l-14-23c-19-32-21-60-4-83 11-15 26-24 46-26 19-2 38 4 56 17 23 17 34 42 30 75ZM428 3088l-68-86-66 16-26-33 292-68-138 263-26-33 32-59Zm19-35 44-83-92 22 48 61ZM793 3177l-139 170 58 48-23 28-88-73 162-197 30 24ZM1297 3618l41 128-45-15-37-122-6-2-33 99-37-12 80-243 43 14c32 11 53 25 64 41 11 19 13 39 6 61-6 18-16 31-30 40s-29 13-46 11Zm-37-43 12 4c34 11 56 4 65-23 8-25-5-43-38-54l-13-4-26 77ZM1748 3592l-101-11-7 62 99 10-3 36-99-10-9 84 102 11-4 36-140-14 26-255 140 15-4 36ZM2111 3576l-29 22c-7-9-13-15-19-18s-13-4-22-3c-10 2-19 6-25 12-6 7-9 15-8 24 1 12 12 21 31 27l26 7c22 6 38 15 49 26s17 25 19 42c3 24-3 44-17 61a81 81 0 0 1-56 29c-22 3-41-2-57-13a91 91 0 0 1-32-52l38-13c3 14 7 24 12 30 9 10 22 14 37 12 12-1 21-6 28-15s10-19 9-32l-4-13-8-11c-3-3-7-6-12-8l-17-7-26-7c-36-11-56-31-59-59-2-19 3-36 17-50 13-15 30-23 52-26 29-3 54 9 73 35ZM2496 3444l15 43c-27-11-52-12-74-4-25 9-43 25-53 49a95 95 0 0 0-3 74c9 25 25 43 48 55 23 11 47 13 72 4 13-5 23-11 30-18 5-4 9-8 13-14l12-18 16 43c-17 19-37 33-60 41-34 12-68 10-101-5-32-16-55-41-67-75-10-31-10-62 2-93 15-38 42-64 81-78 22-8 45-9 69-4ZM2912 3415l-91 60 11 68-35 22-44-296 251 160-35 23-57-37Zm-33-22-79-51 15 94 64-43ZM3071 3071l157 153-27 28-157-153-41 41-26-25 110-111 25 25-41 42ZM3315 2751l-56 86 52 33 54-83 30 19-54 84 72 46 55-86 31 20-76 118-215-138 76-119 31 20Z"/><circle class="cls-1" cx="38.7" cy="1854.3" r="38.7"/><circle class="cls-1" cx="3593.2" cy="1854.3" r="38.7"/></g></svg>