<?xml version="1.0" encoding="UTF-8"?>
<svg id="Capa_2" data-name="Capa 2" xmlns="http://www.w3.org/2000/svg" viewBox="0 0 154.02 38.53">
  <defs>
    <style>
      .cls-1 {
        fill: #ebe5ff;
        stroke-width: 0px;
      }
    </style>
  </defs>
  <g id="Capa_1-2" data-name="Capa 1">
    <g id="Logotipo">
      <path class="cls-1" d="M53.5,10.68v26.91c0,.26-.21.47-.47.47h-4.82c-.26,0-.47-.21-.47-.47v-2.81c-.91,1.15-2.1,2.05-3.56,2.7-1.47.66-3.03.99-4.68.99-2.19,0-4.15-.45-5.89-1.36-1.74-.91-3.1-2.26-4.09-4.04-.99-1.79-1.49-3.94-1.49-6.47v-15.91c0-.26.21-.47.47-.47h4.77c.26,0,.47.21.47.47v15.05c0,2.49.62,4.41,1.87,5.74,1.25,1.33,2.95,2,5.11,2s3.87-.67,5.13-2c1.26-1.33,1.9-3.24,1.9-5.74v-15.05c0-.26.21-.47.47-.47h4.82c.26,0,.47.21.47.47Z"/>
      <path class="cls-1" d="M58.14,16.56c1.16-2.17,2.77-3.85,4.83-5.03,2.06-1.18,4.41-1.77,7.08-1.77,3.37,0,6.16.8,8.37,2.4,2.21,1.6,3.7,3.88,4.47,6.85h-6.22c-.51-1.38-1.31-2.46-2.43-3.24-1.11-.77-2.51-1.16-4.2-1.16-2.36,0-4.24.83-5.64,2.5-1.4,1.67-2.1,4-2.1,7s.7,5.34,2.1,7.03c1.4,1.69,3.28,2.53,5.64,2.53,3.34,0,5.54-1.47,6.62-4.4h6.22c-.81,2.83-2.33,5.08-4.55,6.75-2.22,1.67-4.99,2.5-8.29,2.5-2.66,0-5.02-.6-7.08-1.79-2.06-1.2-3.67-2.88-4.83-5.06-1.16-2.17-1.74-4.69-1.74-7.56s.58-5.38,1.74-7.56Z"/>
      <path class="cls-1" d="M87.52,16.59c1.16-2.16,2.75-3.83,4.75-5.03,2-1.2,4.22-1.79,6.65-1.79,2.19,0,4.1.43,5.74,1.29,1.63.86,2.94,1.93,3.92,3.21v-3.57c0-.26.21-.48.48-.48h4.86c.26,0,.48.21.48.48v26.9c0,.26-.21.48-.48.48h-4.86c-.26,0-.48-.21-.48-.48v-3.67c-.98,1.31-2.31,2.41-3.99,3.29-1.69.88-3.61,1.31-5.76,1.31-2.39,0-4.58-.61-6.57-1.85-1.99-1.23-3.56-2.95-4.73-5.16-1.16-2.21-1.74-4.71-1.74-7.51s.58-5.27,1.74-7.43ZM107.39,19.12c-.79-1.42-1.83-2.49-3.11-3.24-1.28-.74-2.66-1.11-4.15-1.11s-2.86.36-4.15,1.09c-1.28.73-2.32,1.79-3.11,3.18-.79,1.4-1.19,3.06-1.19,4.98s.4,3.61,1.19,5.06c.79,1.45,1.84,2.55,3.13,3.31,1.3.76,2.67,1.14,4.12,1.14s2.86-.37,4.15-1.11c1.28-.74,2.32-1.83,3.11-3.26.79-1.43,1.19-3.11,1.19-5.03s-.4-3.59-1.19-5Z"/>
      <path class="cls-1" d="M131.33,32.9l7.78-22.38c.07-.19.24-.32.44-.32h5.1c.33,0,.56.33.44.64l-10.26,26.91c-.07.18-.24.3-.44.3h-6.23c-.2,0-.37-.12-.44-.3l-10.21-26.91c-.12-.31.11-.64.44-.64h5.15c.2,0,.38.13.44.32l7.78,22.38Z"/>
      <path class="cls-1" d="M149.04,5.02c-.56-.56-.84-1.26-.84-2.09s.28-1.53.84-2.09,1.26-.84,2.09-.84,1.49.28,2.05.84.84,1.26.84,2.09-.28,1.53-.84,2.09c-.56.56-1.24.84-2.05.84s-1.53-.28-2.09-.84ZM153.97,10.7v26.91c0,.26-.21.47-.47.47h-4.82c-.26,0-.47-.21-.47-.47V10.7c0-.26.21-.47.47-.47h4.82c.26,0,.47.21.47.47Z"/>
      <path class="cls-1" d="M24.7,37.35l-8.27-13.85c2.76-.67,4.81-1.95,6.14-3.82,1.33-1.87,2-3.95,2-6.24,0-1.95-.46-3.72-1.39-5.31-.93-1.58-2.33-2.85-4.2-3.79-1.87-.94-4.15-1.42-6.85-1.42h-1.47c-.13,0-.25.05-.33.14l-4.56,4.56h6.37c2.19,0,3.82.51,4.9,1.54,1.08,1.03,1.62,2.45,1.62,4.27s-.55,3.27-1.64,4.35c-1.1,1.08-2.72,1.62-4.88,1.62h-6.37V7.63h0s0,0,0,0V3.43c0-.28-.22-.5-.5-.5H.5C.22,2.93,0,3.15,0,3.43v.2h0v9.76s0,0,0,0H0v19.41h0v4.76c0,.28.22.5.5.5h4.77c.28,0,.5-.22.5-.5v-2.18h0v-11.38h4.4l7.95,13.82c.08.15.24.24.41.24h5.77c.37,0,.59-.4.41-.71Z"/>
    </g>
  </g>
</svg>